# xmcd
#
# Track frame offsets: 
#        150
#        8028
#        25638
#        37945
#        50118
#        69852
#        84741
#        112642
#        134259
#        154201
#        164780
#        181021
#        190631
#        207538
#        226317
#        236342
#        251427
#        265468
#        279813
#        294344
#
# Disc length: 4104 seconds
#
# Revision: 2
# Processed by: cddbd v1.5.2PL0 Copyright (c) Steve Scherf et al.
# Submitted via: ExactAudioCopy v0.99pb5
#
DISCID=04100614
DTITLE=Willie Nelson - Smokin' At The Paradiso  ( Live In Amsterdam )
DYEAR=2004
DGENRE=Country
TTITLE0=If You Got The Money
TTITLE1=Vous and Moi
TTITLE2=Seven Spanish Angels
TTITLE3=City Of New Orleans
TTITLE4=To All The Girls I Loved Bevore
TTITLE5=Still Is Still Movin' To Me
TTITLE6=Milk Cow Blues
TTITLE7=Pancho and Lefty
TTITLE8=Till I Gain Control
TTITLE9=Mama Don't Let Your Babies Grow Up To Be Cowboys
TTITLE10=Angel Flying Too Close To The Ground
TTITLE11=On The Road Again
TTITLE12=Always On My Mind
TTITLE13=Ou Est Tu Mon Amour I Never Cared For You
TTITLE14=Please Don't Talk About Me When I'm Gone
TTITLE15=Roll In My Sweet Baby's Arms
TTITLE16=Good Hearted Woman
TTITLE17=Blue Skies
TTITLE18=Georgia On My Mind
TTITLE19=Blue Eyes Crying In The Rain
EXTD=YEAR: 2004
EXTT0=
EXTT1=
EXTT2=
EXTT3=
EXTT4=
EXTT5=
EXTT6=
EXTT7=
EXTT8=
EXTT9=
EXTT10=
EXTT11=
EXTT12=
EXTT13=
EXTT14=
EXTT15=
EXTT16=
EXTT17=
EXTT18=
EXTT19=
PLAYORDER=
